# xmcd CD database file
#
# Track frame offsets:
#	150
#	17299
#	32873
#	51234
#	73343
#	88068
#	114872
#	139976
#	157794
#	175653
#	191325
#	207179
#
# Disc length: 3009 seconds
#
# Revision: 0
# Processed by: cddbd v1.4PL0 Copyright (c) Steve Scherf et al.
# Submitted via: CDex 1.51
#
DISCID=990bbf0c
DTITLE=Renewed by Nature - Friends
DYEAR=1900
DGENRE=New Age
TTITLE0=Moss Covered Banks
TTITLE1=October
TTITLE2=Shrouded By Mist
TTITLE3=Waterfall Beach
TTITLE4=Love Is Like A Rainbow
TTITLE5=Winter Into Spring
TTITLE6=Lady In The Morning
TTITLE7=Hornby Winter Soul
TTITLE8=The Wanderer
TTITLE9=Dream Wheel
TTITLE10=Visions of Paradise
TTITLE11=Summer Sunset
EXTD=
EXTT0=
EXTT1=
EXTT2=
EXTT3=
EXTT4=
EXTT5=
EXTT6=
EXTT7=
EXTT8=
EXTT9=
EXTT10=
EXTT11=
PLAYORDER=
